PathFileType	4	(X/Y/Z)	./resultDataOpenSim/trcMotMarkerGrf/sub09/qtm-15-07.trc
DataRate	CameraRate	NumFrames	NumMarkers	Units	OrigDataRate	OrigDataStartFrame	OrigNumFrames
250.000000	250.000000	13	24	m	250.000000	352	469
Frame#	Time	L.Toe.Tip			R.Toe.Tip			L.Ankle.Lat			R.Ankle.Lat			L.Ankle.Med			R.Ankle.Med			L.Heel			R.Heel			L.Knee.Lat			R.Knee.Lat			L.Knee.Med			R.Knee.Med			L.Thigh.Upper			R.Thigh.Upper			L.ASIS			R.ASIS			V.Sacral			L.Acromium			R.Acromium			C7			L.Elbow			R.Elbow			L.Wrist.Lat			R.Wrist.Lat
		X1	Y1	Z1	X2	Y2	Z2	X3	Y3	Z3	X4	Y4	Z4	X5	Y5	Z5	X6	Y6	Z6	X7	Y7	Z7	X8	Y8	Z8	X9	Y9	Z9	X10	Y10	Z10	X11	Y11	Z11	X12	Y12	Z12	X13	Y13	Z13	X14	Y14	Z14	X15	Y15	Z15	X16	Y16	Z16	X17	Y17	Z17	X18	Y18	Z18	X19	Y19	Z19	X20	Y20	Z20	X21	Y21	Z21	X22	Y22	Z22	X23	Y23	Z23	X24	Y24	Z24

352	1.404	0.92692472	0.11497545	-0.070098342	1.0835219	0.038825297	0.037885322	0.86653872	0.25695575	-0.10288991	0.94115888	0.063855402	0.069499238	0.89095456	0.24606377	-0.0068052534	0.95613387	0.10258442	-0.022199356	0.79084318	0.28549584	-0.056055671	0.86803558	0.053616103	0.020192495	1.1984364	0.48450617	-0.12184419	1.129139	0.47407342	0.13542482	1.223277	0.47866117	0.011288517	1.1081146	0.47117992	0.0096676476	1.0094651	0.84739267	-0.15562892	1.0245545	0.86993629	0.21375497	1.085486	0.93466142	-0.099740008	1.099944	0.94889151	0.13650452	0.92745898	1.0063816	0.022441263	1.1163387	1.3861441	-0.16305709	1.0992224	1.4089771	0.1677746	1.0358626	1.4497185	-0.0020674038	0.97232936	1.0364528	-0.21108712	0.92029089	1.0843187	0.26651388	1.172777	0.85193182	-0.21276753	1.1118648	0.87995671	0.26256736
353	1.408	0.94547839	0.11352601	-0.071686433	1.0835673	0.038838499	0.038015068	0.88064729	0.2536243	-0.10393753	0.94156386	0.064972956	0.069891004	0.9058368	0.24289468	-0.0082091135	0.95754235	0.10379148	-0.021710884	0.80400247	0.27994945	-0.057059134	0.86855738	0.055241139	0.020833977	1.2077492	0.48861854	-0.12173007	1.1306774	0.4748333	0.13608962	1.2273836	0.48217743	0.00992627	1.1101847	0.47176446	0.010365965	1.0153146	0.84992424	-0.15632542	1.0292478	0.87136242	0.21377243	1.0913163	0.93724634	-0.10003773	1.1054475	0.9507185	0.13631291	0.93313202	1.0085	0.022103766	1.1211013	1.3885158	-0.16349282	1.1050344	1.4112587	0.16741846	1.0411245	1.4518761	-0.0021912134	0.97638169	1.0391654	-0.21081232	0.92674578	1.0859756	0.26641722	1.1750703	0.85298154	-0.21426294	1.1208469	0.88381822	0.26079046
354	1.412	0.96379417	0.11211505	-0.073223281	1.0836243	0.03883793	0.038159706	0.89477657	0.2501507	-0.1049064	0.94198716	0.066142664	0.070308068	0.92111598	0.23958454	-0.009685643	0.95904571	0.1050843	-0.021068462	0.81736213	0.27426223	-0.058004442	0.86897522	0.056946732	0.021337635	1.2168706	0.49266405	-0.12165234	1.1324541	0.47567494	0.13673208	1.2298149	0.48548359	0.0081300364	1.1125748	0.47222717	0.011385998	1.0215334	0.85251747	-0.15678299	1.0338761	0.87296278	0.21363391	1.0971638	0.9397828	-0.10031766	1.1109152	0.95254245	0.13613716	0.93879565	1.0106001	0.021743222	1.1258836	1.3908599	-0.16392011	1.1108301	1.4135125	0.1670701	1.0463881	1.4540132	-0.0023222676	0.9804927	1.0418277	-0.21055505	0.93323988	1.0876084	0.26634523	1.1773852	0.85401957	-0.2157639	1.1298319	0.88766258	0.25898707
355	1.416	0.98173327	0.11066505	-0.074722293	1.0837514	0.038851725	0.038300603	0.90896838	0.24654397	-0.1058246	0.94242766	0.067359008	0.07073404	0.93638361	0.23615833	-0.010982276	0.96000072	0.1063465	-0.020418782	0.83089202	0.26838916	-0.058808771	0.86933396	0.058713585	0.021711024	1.2258233	0.49659265	-0.12161259	1.1343002	0.47655494	0.1373138	1.2338598	0.48896313	0.0067461207	1.1151871	0.47261946	0.012632767	1.0280383	0.85515699	-0.15705892	1.0380535	0.87471579	0.21343723	1.1030272	0.94226712	-0.10057683	1.1163778	0.95436387	0.13595557	0.9444447	1.0126744	0.021363291	1.1306821	1.393172	-0.16433744	1.1166159	1.4157357	0.16672565	1.0516493	1.4561267	-0.0024630295	0.98467716	1.0444517	-0.21031029	0.93977259	1.0892136	0.26629692	1.1797252	0.85504413	-0.21727315	1.1387534	0.89146778	0.25720685
356	1.42	0.9995904	0.10911276	-0.076224124	1.0840105	0.038896703	0.038415909	0.92326029	0.24280622	-0.10670774	0.94290221	0.068606879	0.071155575	0.95134188	0.23262872	-0.012004566	0.96003824	0.10750446	-0.019899287	0.84462222	0.2623279	-0.059545125	0.86968539	0.060499081	0.02202524	1.2346267	0.50036942	-0.12159516	1.136001	0.47741939	0.13783219	1.2405004	0.49265799	0.0060399128	1.1177223	0.47309966	0.013790288	1.0345547	0.85776134	-0.15734656	1.0414962	0.87655015	0.2133035	1.1088909	0.94470265	-0.10081232	1.1218556	0.95618692	0.13576485	0.95008668	1.014717	0.020954622	1.1354938	1.3954455	-0.16474711	1.1224049	1.4179228	0.16638051	1.0569104	1.4582102	-0.0026068845	0.98893033	1.0470498	-0.21006678	0.94634815	1.0907902	0.26627146	1.1820899	0.8560552	-0.21879218	1.1475653	0.89521837	0.25546971
357	1.424	1.0176484	0.10746657	-0.077737689	1.0843926	0.038962125	0.03850568	0.93767125	0.23893047	-0.10756281	0.9434564	0.06986766	0.071558157	0.96604876	0.22901022	-0.012863798	0.95964377	0.10863021	-0.019488582	0.8585727	0.25609404	-0.06033525	0.87007386	0.062288744	0.022342402	1.2432805	0.5039991	-0.12158836	1.1375956	0.47830053	0.13831428	1.2486004	0.49636155	0.0057323897	1.1199993	0.47375726	0.014661359	1.0408793	0.86026631	-0.15778575	1.0447656	0.87842362	0.21315393	1.1147392	0.9470944	-0.10102409	1.1273517	0.95801746	0.13557838	0.95573159	1.0167229	0.020509519	1.1403195	1.3976781	-0.16515025	1.1282033	1.4200711	0.16603244	1.0621837	1.4602643	-0.0027426083	0.99324322	1.0496251	-0.20982101	0.95295766	1.0923391	0.2662603	1.184478	0.85705097	-0.22031999	1.1562609	0.89890935	0.25377301
358	1.428	1.0358973	0.10578657	-0.079206755	1.0847647	0.039016898	0.038610475	0.95220016	0.23490907	-0.10839012	0.94412495	0.071130391	0.071922125	0.98072514	0.22531327	-0.013685678	0.95959006	0.10983551	-0.019069016	0.87273862	0.24969825	-0.061243014	0.87052796	0.064103181	0.022685059	1.2517657	0.50750316	-0.12159516	1.1392248	0.47922017	0.1387755	1.2569452	0.49992103	0.0055143403	1.1220563	0.47456548	0.015306775	1.0469971	0.86267263	-0.15838332	1.0488938	0.88031979	0.2127936	1.1205768	0.94944423	-0.10121106	1.1328608	0.95985643	0.13540601	0.96138768	1.0186887	0.020029376	1.145165	1.399875	-0.16554522	1.1340055	1.422191	0.16568136	1.0674777	1.4622992	-0.0028633621	0.99761687	1.0521713	-0.20958354	0.95957704	1.0938654	0.26624942	1.1868916	0.85802841	-0.22185181	1.1648549	0.90253897	0.2521058
359	1.432	1.054201	0.10412849	-0.080566761	1.0849659	0.039048643	0.038785769	0.96684152	0.23074088	-0.10918725	0.94486694	0.072398107	0.072245738	0.99551121	0.22154393	-0.014509736	0.96013824	0.11112436	-0.018557054	0.8870939	0.24315208	-0.062229599	0.87103036	0.065959956	0.023019592	1.2600708	0.51088493	-0.121625	1.1409348	0.48014757	0.13922735	1.265037	0.50329727	0.0052538362	1.1239875	0.47547123	0.015867528	1.0530083	0.86502206	-0.15907299	1.0541891	0.88222669	0.21218204	1.1264329	0.95174897	-0.10137551	1.1383727	0.96169596	0.1352497	0.96706508	1.0206171	0.019520075	1.1500377	1.4020458	-0.16593544	1.1398095	1.42431	0.16532732	1.0727863	1.4643181	-0.0029698116	1.0020492	1.0546815	-0.20937233	0.96619056	1.0953733	0.26623307	1.1893356	0.85898877	-0.2233828	1.1733616	0.90610405	0.25046076
360	1.436	1.0724976	0.10251499	-0.081802952	1.0849847	0.039099085	0.039047918	0.98160378	0.2264357	-0.1099544	0.94558345	0.073681077	0.072558354	1.0104355	0.21771116	-0.015327995	0.96108452	0.11241409	-0.017932528	0.90161126	0.23646825	-0.063201596	0.87152336	0.067857271	0.023269723	1.2682053	0.51412451	-0.12167683	1.1427624	0.48108861	0.1397199	1.2728245	0.50649608	0.0049329726	1.125851	0.47643623	0.016404886	1.0590661	0.8673611	-0.15976679	1.0600055	0.88411299	0.21151296	1.1323486	0.95400323	-0.1015331	1.1438791	0.96352421	0.13510846	0.97277154	1.0225081	0.01898627	1.1549444	1.4041997	-0.16633503	1.1456257	1.4264546	0.16497121	1.0780925	1.4663043	-0.0030787202	1.0065269	1.0571545	-0.20920354	0.97280208	1.09686	0.26621591	1.1918122	0.85993681	-0.22491134	1.1817899	0.90960232	0.24883751
361	1.44	1.0908222	0.10094531	-0.082932405	1.0849744	0.039223935	0.03935559	0.9965031	0.22201059	-0.11069244	0.94621497	0.074983304	0.072886967	1.0254853	0.21383176	-0.016134456	0.96212851	0.11363996	-0.017245388	0.91628554	0.22965422	-0.064101567	0.87196239	0.069790193	0.023376683	1.2761685	0.51720625	-0.12173893	1.1448519	0.48206021	0.14031826	1.280404	0.50952878	0.0045728836	1.1277138	0.47740986	0.01691191	1.0653142	0.86971446	-0.16038782	1.0656003	0.8859311	0.21101807	1.1383484	0.95620392	-0.101701	1.1493845	0.96533351	0.13497772	0.97850887	1.024349	0.018430982	1.1598901	1.4063398	-0.16675812	1.1514532	1.4286146	0.16461706	1.0833812	1.4682377	-0.0032134934	1.0110425	1.0595922	-0.20908705	0.97942432	1.0983187	0.26620436	1.194317	0.8608723	-0.2264379	1.1901429	0.91303341	0.24723717
362	1.444	1.1092395	0.099412952	-0.083954385	1.0850833	0.039417589	0.039645574	1.0115463	0.21748126	-0.1114024	0.94677918	0.076298761	0.073228196	1.0406735	0.20992998	-0.01694193	0.96303174	0.11480194	-0.01664273	0.93112473	0.22271657	-0.06492739	0.87236469	0.071754291	0.023379648	1.2839113	0.52013753	-0.12181177	1.1473003	0.48302358	0.14104964	1.287856	0.512395	0.0041925482	1.1296814	0.47832241	0.017385494	1.0717817	0.87206775	-0.16091793	1.0707268	0.88765714	0.21075424	1.1444228	0.958351	-0.10187949	1.1549039	0.96712187	0.13484895	0.98428236	1.0261102	0.01785528	1.1648733	1.408456	-0.16719713	1.1572656	1.4307374	0.1642675	1.0886516	1.4701159	-0.0033749413	1.0156067	1.0619927	-0.20902576	0.98606845	1.0997433	0.26620108	1.1968436	0.86178684	-0.22796413	1.1984175	0.9163959	0.2456607
363	1.448	1.1277926	0.0979093	-0.084839374	1.0853182	0.03961499	0.039879649	1.0267359	0.21285969	-0.11209128	0.94732223	0.077620251	0.073565519	1.0560608	0.20603661	-0.01777658	0.96371821	0.11594799	-0.016287768	0.94614065	0.21567049	-0.065702795	0.87279659	0.07373239	0.023405065	1.2913538	0.52294153	-0.12192396	1.1498558	0.48395272	0.14187997	1.2951972	0.51508595	0.0037984169	1.1318126	0.47913895	0.017846175	1.078358	0.87437774	-0.16140676	1.0755411	0.88931657	0.21059181	1.1505415	0.96044377	-0.10205641	1.160447	0.96888799	0.13471665	0.99008898	1.0277533	0.017255448	1.1698827	1.4105231	-0.16762125	1.1630417	1.4327763	0.163919	1.0939166	1.4719471	-0.0035442999	1.0202436	1.0643545	-0.20902202	0.99273355	1.1011284	0.26620026	1.1993912	0.862672	-0.22949245	1.2066089	0.91968296	0.24410781
364	1.452	1.1464936	0.096425137	-0.085556058	1.0855795	0.039765535	0.040049764	1.0420818	0.20815737	-0.11276831	0.94788646	0.078947447	0.07389246	1.0717073	0.20218029	-0.018646394	0.96433391	0.11713947	-0.016171941	0.9613473	0.20854041	-0.066458728	0.87330564	0.075694535	0.023536091	1.2984801	0.52561889	-0.12210214	1.1520188	0.48489401	0.1427194	1.3024115	0.51759732	0.0033909286	1.1340449	0.47989556	0.018310982	1.0849086	0.87660808	-0.16191351	1.0802689	0.89095648	0.21038185	1.1566801	0.96247705	-0.10222275	1.1660068	0.97062802	0.13458283	0.99585969	1.0292689	0.016623985	1.1749087	1.4125176	-0.16800595	1.1687893	1.4347255	0.16356731	1.0991898	1.473731	-0.0037106504	1.0249729	1.0666809	-0.20908053	0.99939308	1.1024679	0.26618401	1.2019659	0.86352824	-0.2310222	1.2147243	0.92288053	0.24257577
